<mxfile host="Electron" modified="2023-12-03T03:54:02.393Z" agent="Mozilla/5.0 (Windows NT 10.0; Win64; x64) AppleWebKit/537.36 (KHTML, like Gecko) draw.io/22.1.2 Chrome/114.0.5735.289 Electron/25.9.4 Safari/537.36" etag="HOkaWSJx0dIWzbmDGqfT" version="22.1.2" type="device">
  <diagram name="PÃ¡gina-1" id="1naj_lO46jhSrpNQx8SU">
    <mxGraphModel dx="1178" dy="790" grid="1" gridSize="10" guides="1" tooltips="1" connect="1" arrows="1" fold="1" page="1" pageScale="1" pageWidth="827" pageHeight="1169" math="0" shadow="0">
      <root>
        <mxCell id="0" />
        <mxCell id="1" parent="0" />
        <mxCell id="y14SEAgiUt3iNXtekEc_-29" value="" style="rounded=0;whiteSpace=wrap;html=1;fillColor=#e1d5e7;strokeColor=#9673a6;" vertex="1" parent="1">
          <mxGeometry x="618.37" y="320" width="134.37" height="52" as="geometry" />
        </mxCell>
        <mxCell id="y14SEAgiUt3iNXtekEc_-28" value="" style="rounded=0;whiteSpace=wrap;html=1;fillColor=#e1d5e7;strokeColor=#9673a6;" vertex="1" parent="1">
          <mxGeometry x="484" y="320" width="134.37" height="52" as="geometry" />
        </mxCell>
        <mxCell id="xud5iXsjGnso0-Vp6BYW-25" value="" style="rounded=0;whiteSpace=wrap;html=1;" parent="1" vertex="1">
          <mxGeometry x="246.55" y="123" width="480" height="52" as="geometry" />
        </mxCell>
        <mxCell id="xud5iXsjGnso0-Vp6BYW-27" value="" style="rounded=0;whiteSpace=wrap;html=1;fillColor=#f5f5f5;strokeColor=#666666;gradientColor=#b3b3b3;fontColor=#000000;" parent="1" vertex="1">
          <mxGeometry x="246.55" y="123" width="60" height="52" as="geometry" />
        </mxCell>
        <mxCell id="xud5iXsjGnso0-Vp6BYW-30" value="7" style="text;html=1;strokeColor=none;fillColor=none;align=center;verticalAlign=middle;whiteSpace=wrap;rounded=0;fontSize=16;fontStyle=1;fontColor=#000000;" parent="1" vertex="1">
          <mxGeometry x="241.55" y="134" width="70" height="30" as="geometry" />
        </mxCell>
        <mxCell id="WSSVNUDpOs4ptSsY72oF-7" value="" style="rounded=0;whiteSpace=wrap;html=1;fillColor=#f5f5f5;strokeColor=#666666;gradientColor=#b3b3b3;fontColor=#000000;" parent="1" vertex="1">
          <mxGeometry x="306.55" y="123" width="60" height="52" as="geometry" />
        </mxCell>
        <mxCell id="WSSVNUDpOs4ptSsY72oF-8" value="" style="rounded=0;whiteSpace=wrap;html=1;fillColor=#f5f5f5;strokeColor=#666666;gradientColor=#b3b3b3;fontColor=#000000;" parent="1" vertex="1">
          <mxGeometry x="366.55" y="123" width="60" height="52" as="geometry" />
        </mxCell>
        <mxCell id="WSSVNUDpOs4ptSsY72oF-9" value="" style="rounded=0;whiteSpace=wrap;html=1;fillColor=#f5f5f5;strokeColor=#666666;gradientColor=#b3b3b3;fontColor=#000000;" parent="1" vertex="1">
          <mxGeometry x="426.55" y="123" width="60" height="52" as="geometry" />
        </mxCell>
        <mxCell id="WSSVNUDpOs4ptSsY72oF-10" value="" style="rounded=0;whiteSpace=wrap;html=1;fillColor=#f5f5f5;strokeColor=#666666;gradientColor=#b3b3b3;fontColor=#000000;" parent="1" vertex="1">
          <mxGeometry x="486.55" y="123" width="60" height="52" as="geometry" />
        </mxCell>
        <mxCell id="WSSVNUDpOs4ptSsY72oF-11" value="" style="rounded=0;whiteSpace=wrap;html=1;fillColor=#f5f5f5;strokeColor=#666666;gradientColor=#b3b3b3;fontColor=#000000;" parent="1" vertex="1">
          <mxGeometry x="545.55" y="123" width="60" height="52" as="geometry" />
        </mxCell>
        <mxCell id="WSSVNUDpOs4ptSsY72oF-12" value="6" style="text;html=1;strokeColor=none;fillColor=none;align=center;verticalAlign=middle;whiteSpace=wrap;rounded=0;fontSize=16;fontStyle=1;fontColor=#000000;" parent="1" vertex="1">
          <mxGeometry x="301.55" y="134" width="70" height="30" as="geometry" />
        </mxCell>
        <mxCell id="WSSVNUDpOs4ptSsY72oF-13" value="5" style="text;html=1;strokeColor=none;fillColor=none;align=center;verticalAlign=middle;whiteSpace=wrap;rounded=0;fontSize=16;fontStyle=1;fontColor=#000000;" parent="1" vertex="1">
          <mxGeometry x="366.55" y="134" width="70" height="30" as="geometry" />
        </mxCell>
        <mxCell id="WSSVNUDpOs4ptSsY72oF-14" value="4" style="text;html=1;strokeColor=none;fillColor=none;align=center;verticalAlign=middle;whiteSpace=wrap;rounded=0;fontSize=16;fontStyle=1;fontColor=#000000;" parent="1" vertex="1">
          <mxGeometry x="421.55" y="134" width="70" height="30" as="geometry" />
        </mxCell>
        <mxCell id="WSSVNUDpOs4ptSsY72oF-15" value="3" style="text;html=1;strokeColor=none;fillColor=none;align=center;verticalAlign=middle;whiteSpace=wrap;rounded=0;fontSize=16;fontStyle=1;fontColor=#000000;" parent="1" vertex="1">
          <mxGeometry x="481.55" y="134" width="70" height="30" as="geometry" />
        </mxCell>
        <mxCell id="WSSVNUDpOs4ptSsY72oF-16" value="2" style="text;html=1;strokeColor=none;fillColor=none;align=center;verticalAlign=middle;whiteSpace=wrap;rounded=0;fontSize=16;fontStyle=1;fontColor=#000000;" parent="1" vertex="1">
          <mxGeometry x="540.55" y="134" width="70" height="30" as="geometry" />
        </mxCell>
        <mxCell id="WSSVNUDpOs4ptSsY72oF-17" value="" style="rounded=0;whiteSpace=wrap;html=1;fillColor=#dae8fc;strokeColor=#6c8ebf;" parent="1" vertex="1">
          <mxGeometry x="605.55" y="123" width="60" height="52" as="geometry" />
        </mxCell>
        <mxCell id="WSSVNUDpOs4ptSsY72oF-18" value="1" style="text;html=1;strokeColor=none;fillColor=none;align=center;verticalAlign=middle;whiteSpace=wrap;rounded=0;fontSize=16;fontStyle=1;fontColor=#000000;" parent="1" vertex="1">
          <mxGeometry x="600.55" y="134" width="70" height="30" as="geometry" />
        </mxCell>
        <mxCell id="WSSVNUDpOs4ptSsY72oF-19" value="" style="rounded=0;whiteSpace=wrap;html=1;fillColor=#dae8fc;strokeColor=#6c8ebf;" parent="1" vertex="1">
          <mxGeometry x="665.55" y="123" width="60" height="52" as="geometry" />
        </mxCell>
        <mxCell id="WSSVNUDpOs4ptSsY72oF-20" value="0" style="text;html=1;strokeColor=none;fillColor=none;align=center;verticalAlign=middle;whiteSpace=wrap;rounded=0;fontSize=16;fontStyle=1;fontColor=#000000;" parent="1" vertex="1">
          <mxGeometry x="660.55" y="134" width="70" height="30" as="geometry" />
        </mxCell>
        <mxCell id="WSSVNUDpOs4ptSsY72oF-25" value="DSCP FIELD" style="text;html=1;strokeColor=none;fillColor=none;align=center;verticalAlign=middle;whiteSpace=wrap;rounded=0;fontSize=16;fontStyle=1;fontColor=#ffffff;" parent="1" vertex="1">
          <mxGeometry x="359.05" y="50" width="135" height="30" as="geometry" />
        </mxCell>
        <mxCell id="WSSVNUDpOs4ptSsY72oF-48" value="aaa" style="text;html=1;strokeColor=none;fillColor=none;align=center;verticalAlign=middle;whiteSpace=wrap;rounded=0;fontSize=16;fontStyle=1;fontColor=#ffffff;" parent="1" vertex="1">
          <mxGeometry x="312.18" y="220" width="48.75" height="30" as="geometry" />
        </mxCell>
        <mxCell id="BCy47IR0d-kxVVgHZzA4-1" value="" style="shape=curlyBracket;whiteSpace=wrap;html=1;rounded=1;labelPosition=left;verticalLabelPosition=middle;align=right;verticalAlign=middle;rotation=90;strokeWidth=3;" parent="1" vertex="1">
          <mxGeometry x="416.55" y="-70" width="20" height="350" as="geometry" />
        </mxCell>
        <mxCell id="BCy47IR0d-kxVVgHZzA4-3" value="" style="shape=curlyBracket;whiteSpace=wrap;html=1;rounded=1;labelPosition=left;verticalLabelPosition=middle;align=right;verticalAlign=middle;rotation=-90;strokeWidth=3;" parent="1" vertex="1">
          <mxGeometry x="326.55" y="110" width="20" height="170" as="geometry" />
        </mxCell>
        <mxCell id="y14SEAgiUt3iNXtekEc_-1" value="" style="shape=curlyBracket;whiteSpace=wrap;html=1;rounded=1;labelPosition=left;verticalLabelPosition=middle;align=right;verticalAlign=middle;rotation=-90;strokeWidth=3;" vertex="1" parent="1">
          <mxGeometry x="506.55" y="110" width="20" height="170" as="geometry" />
        </mxCell>
        <mxCell id="y14SEAgiUt3iNXtekEc_-2" value="dd" style="text;html=1;strokeColor=none;fillColor=none;align=center;verticalAlign=middle;whiteSpace=wrap;rounded=0;fontSize=16;fontStyle=1;fontColor=#ffffff;" vertex="1" parent="1">
          <mxGeometry x="491.55" y="220" width="48.75" height="30" as="geometry" />
        </mxCell>
        <mxCell id="y14SEAgiUt3iNXtekEc_-3" value="" style="rounded=0;whiteSpace=wrap;html=1;fillColor=#e1d5e7;strokeColor=#9673a6;" vertex="1" parent="1">
          <mxGeometry x="40" y="320" width="134.37" height="52" as="geometry" />
        </mxCell>
        <mxCell id="y14SEAgiUt3iNXtekEc_-8" value="AF CLASS" style="text;html=1;strokeColor=none;fillColor=none;align=center;verticalAlign=middle;whiteSpace=wrap;rounded=0;fontSize=16;fontStyle=1;fontColor=#000000;" vertex="1" parent="1">
          <mxGeometry x="62.19" y="331" width="90" height="30" as="geometry" />
        </mxCell>
        <mxCell id="y14SEAgiUt3iNXtekEc_-9" value="" style="rounded=0;whiteSpace=wrap;html=1;fillColor=#e1d5e7;strokeColor=#9673a6;" vertex="1" parent="1">
          <mxGeometry x="174.37" y="320" width="134.37" height="52" as="geometry" />
        </mxCell>
        <mxCell id="y14SEAgiUt3iNXtekEc_-10" value="AF IP PRECEDENCE" style="text;html=1;strokeColor=none;fillColor=none;align=center;verticalAlign=middle;whiteSpace=wrap;rounded=0;fontSize=16;fontStyle=1;fontColor=#000000;" vertex="1" parent="1">
          <mxGeometry x="196.55" y="331" width="90" height="30" as="geometry" />
        </mxCell>
        <mxCell id="y14SEAgiUt3iNXtekEc_-11" value="" style="rounded=0;whiteSpace=wrap;html=1;fillColor=#e1d5e7;strokeColor=#9673a6;" vertex="1" parent="1">
          <mxGeometry x="308.74" y="320" width="134.37" height="52" as="geometry" />
        </mxCell>
        <mxCell id="y14SEAgiUt3iNXtekEc_-12" value="AF IP" style="text;html=1;strokeColor=none;fillColor=none;align=center;verticalAlign=middle;whiteSpace=wrap;rounded=0;fontSize=16;fontStyle=1;fontColor=#000000;" vertex="1" parent="1">
          <mxGeometry x="330.92" y="331" width="90" height="30" as="geometry" />
        </mxCell>
        <mxCell id="y14SEAgiUt3iNXtekEc_-13" value="" style="rounded=0;whiteSpace=wrap;html=1;fillColor=#f5f5f5;strokeColor=#666666;gradientColor=#b3b3b3;fontColor=#000000;" vertex="1" parent="1">
          <mxGeometry x="40" y="372" width="134.37" height="52" as="geometry" />
        </mxCell>
        <mxCell id="y14SEAgiUt3iNXtekEc_-14" value="" style="rounded=0;whiteSpace=wrap;html=1;fillColor=#f5f5f5;strokeColor=#666666;gradientColor=#b3b3b3;fontColor=#000000;" vertex="1" parent="1">
          <mxGeometry x="174.37" y="372" width="134.37" height="52" as="geometry" />
        </mxCell>
        <mxCell id="y14SEAgiUt3iNXtekEc_-15" value="" style="rounded=0;whiteSpace=wrap;html=1;fillColor=#f5f5f5;strokeColor=#666666;gradientColor=#b3b3b3;fontColor=#000000;" vertex="1" parent="1">
          <mxGeometry x="308.74" y="372" width="134.37" height="52" as="geometry" />
        </mxCell>
        <mxCell id="y14SEAgiUt3iNXtekEc_-16" value="" style="rounded=0;whiteSpace=wrap;html=1;fillColor=#fff2cc;strokeColor=#d6b656;" vertex="1" parent="1">
          <mxGeometry x="40" y="424" width="134.37" height="52" as="geometry" />
        </mxCell>
        <mxCell id="y14SEAgiUt3iNXtekEc_-17" value="" style="rounded=0;whiteSpace=wrap;html=1;fillColor=#fff2cc;strokeColor=#d6b656;" vertex="1" parent="1">
          <mxGeometry x="174.37" y="424" width="134.37" height="52" as="geometry" />
        </mxCell>
        <mxCell id="y14SEAgiUt3iNXtekEc_-18" value="" style="rounded=0;whiteSpace=wrap;html=1;fillColor=#fff2cc;strokeColor=#d6b656;" vertex="1" parent="1">
          <mxGeometry x="308.74" y="424" width="134.37" height="52" as="geometry" />
        </mxCell>
        <mxCell id="y14SEAgiUt3iNXtekEc_-19" value="" style="rounded=0;whiteSpace=wrap;html=1;fillColor=#f5f5f5;strokeColor=#666666;gradientColor=#b3b3b3;fontColor=#000000;" vertex="1" parent="1">
          <mxGeometry x="40" y="476" width="134.37" height="52" as="geometry" />
        </mxCell>
        <mxCell id="y14SEAgiUt3iNXtekEc_-20" value="" style="rounded=0;whiteSpace=wrap;html=1;fillColor=#f5f5f5;strokeColor=#666666;gradientColor=#b3b3b3;fontColor=#000000;" vertex="1" parent="1">
          <mxGeometry x="174.37" y="476" width="134.37" height="52" as="geometry" />
        </mxCell>
        <mxCell id="y14SEAgiUt3iNXtekEc_-21" value="" style="rounded=0;whiteSpace=wrap;html=1;fillColor=#f5f5f5;strokeColor=#666666;gradientColor=#b3b3b3;fontColor=#000000;" vertex="1" parent="1">
          <mxGeometry x="308.74" y="476" width="134.37" height="52" as="geometry" />
        </mxCell>
        <mxCell id="y14SEAgiUt3iNXtekEc_-22" value="" style="rounded=0;whiteSpace=wrap;html=1;fillColor=#fff2cc;strokeColor=#d6b656;" vertex="1" parent="1">
          <mxGeometry x="40" y="528" width="134.37" height="52" as="geometry" />
        </mxCell>
        <mxCell id="y14SEAgiUt3iNXtekEc_-23" value="" style="rounded=0;whiteSpace=wrap;html=1;fillColor=#fff2cc;strokeColor=#d6b656;" vertex="1" parent="1">
          <mxGeometry x="174.37" y="528" width="134.37" height="52" as="geometry" />
        </mxCell>
        <mxCell id="y14SEAgiUt3iNXtekEc_-24" value="" style="rounded=0;whiteSpace=wrap;html=1;fillColor=#fff2cc;strokeColor=#d6b656;" vertex="1" parent="1">
          <mxGeometry x="308.74" y="528" width="134.37" height="52" as="geometry" />
        </mxCell>
        <mxCell id="y14SEAgiUt3iNXtekEc_-25" value="AF CLASS" style="text;html=1;strokeColor=none;fillColor=none;align=center;verticalAlign=middle;whiteSpace=wrap;rounded=0;fontSize=16;fontStyle=1;fontColor=#000000;" vertex="1" parent="1">
          <mxGeometry x="510" y="331" width="90" height="30" as="geometry" />
        </mxCell>
        <mxCell id="y14SEAgiUt3iNXtekEc_-26" value="AF IP PRECEDENCE" style="text;html=1;strokeColor=none;fillColor=none;align=center;verticalAlign=middle;whiteSpace=wrap;rounded=0;fontSize=16;fontStyle=1;fontColor=#000000;" vertex="1" parent="1">
          <mxGeometry x="640.55" y="331" width="90" height="30" as="geometry" />
        </mxCell>
        <mxCell id="y14SEAgiUt3iNXtekEc_-31" value="" style="rounded=0;whiteSpace=wrap;html=1;fillColor=#f5f5f5;strokeColor=#666666;gradientColor=#b3b3b3;fontColor=#000000;" vertex="1" parent="1">
          <mxGeometry x="484" y="372" width="134.37" height="52" as="geometry" />
        </mxCell>
        <mxCell id="y14SEAgiUt3iNXtekEc_-32" value="" style="rounded=0;whiteSpace=wrap;html=1;fillColor=#f5f5f5;strokeColor=#666666;gradientColor=#b3b3b3;fontColor=#000000;" vertex="1" parent="1">
          <mxGeometry x="618.37" y="372" width="134.37" height="52" as="geometry" />
        </mxCell>
        <mxCell id="y14SEAgiUt3iNXtekEc_-34" value="" style="rounded=0;whiteSpace=wrap;html=1;fillColor=#fff2cc;strokeColor=#d6b656;" vertex="1" parent="1">
          <mxGeometry x="484" y="424" width="134.37" height="52" as="geometry" />
        </mxCell>
        <mxCell id="y14SEAgiUt3iNXtekEc_-35" value="" style="rounded=0;whiteSpace=wrap;html=1;fillColor=#fff2cc;strokeColor=#d6b656;" vertex="1" parent="1">
          <mxGeometry x="618.37" y="424" width="134.37" height="52" as="geometry" />
        </mxCell>
        <mxCell id="y14SEAgiUt3iNXtekEc_-37" value="" style="rounded=0;whiteSpace=wrap;html=1;fillColor=#f5f5f5;strokeColor=#666666;gradientColor=#b3b3b3;fontColor=#000000;" vertex="1" parent="1">
          <mxGeometry x="484" y="476" width="134.37" height="52" as="geometry" />
        </mxCell>
        <mxCell id="y14SEAgiUt3iNXtekEc_-38" value="" style="rounded=0;whiteSpace=wrap;html=1;fillColor=#f5f5f5;strokeColor=#666666;gradientColor=#b3b3b3;fontColor=#000000;" vertex="1" parent="1">
          <mxGeometry x="618.37" y="476" width="134.37" height="52" as="geometry" />
        </mxCell>
        <mxCell id="y14SEAgiUt3iNXtekEc_-40" value="" style="rounded=0;whiteSpace=wrap;html=1;fillColor=#fff2cc;strokeColor=#d6b656;" vertex="1" parent="1">
          <mxGeometry x="484" y="528" width="134.37" height="52" as="geometry" />
        </mxCell>
        <mxCell id="y14SEAgiUt3iNXtekEc_-41" value="" style="rounded=0;whiteSpace=wrap;html=1;fillColor=#fff2cc;strokeColor=#d6b656;" vertex="1" parent="1">
          <mxGeometry x="618.37" y="528" width="134.37" height="52" as="geometry" />
        </mxCell>
        <mxCell id="y14SEAgiUt3iNXtekEc_-42" value="" style="rounded=0;whiteSpace=wrap;html=1;fillColor=#f5f5f5;strokeColor=#666666;gradientColor=#b3b3b3;fontColor=#000000;" vertex="1" parent="1">
          <mxGeometry x="39.99" y="580" width="134.37" height="52" as="geometry" />
        </mxCell>
        <mxCell id="y14SEAgiUt3iNXtekEc_-43" value="" style="rounded=0;whiteSpace=wrap;html=1;fillColor=#f5f5f5;strokeColor=#666666;gradientColor=#b3b3b3;fontColor=#000000;" vertex="1" parent="1">
          <mxGeometry x="174.36" y="580" width="134.37" height="52" as="geometry" />
        </mxCell>
        <mxCell id="y14SEAgiUt3iNXtekEc_-44" value="" style="rounded=0;whiteSpace=wrap;html=1;fillColor=#f5f5f5;strokeColor=#666666;gradientColor=#b3b3b3;fontColor=#000000;" vertex="1" parent="1">
          <mxGeometry x="308.73" y="580" width="134.37" height="52" as="geometry" />
        </mxCell>
        <mxCell id="y14SEAgiUt3iNXtekEc_-45" value="NAME" style="text;html=1;strokeColor=none;fillColor=none;align=center;verticalAlign=middle;whiteSpace=wrap;rounded=0;fontSize=16;fontStyle=1;fontColor=#000000;" vertex="1" parent="1">
          <mxGeometry x="62.19" y="383" width="90" height="30" as="geometry" />
        </mxCell>
        <mxCell id="y14SEAgiUt3iNXtekEc_-46" value="BIN" style="text;html=1;strokeColor=none;fillColor=none;align=center;verticalAlign=middle;whiteSpace=wrap;rounded=0;fontSize=16;fontStyle=1;fontColor=#000000;" vertex="1" parent="1">
          <mxGeometry x="196.55" y="383" width="90" height="30" as="geometry" />
        </mxCell>
        <mxCell id="y14SEAgiUt3iNXtekEc_-47" value="AF1" style="text;html=1;strokeColor=none;fillColor=none;align=center;verticalAlign=middle;whiteSpace=wrap;rounded=0;fontSize=16;fontStyle=1;fontColor=#000000;" vertex="1" parent="1">
          <mxGeometry x="62.19" y="435" width="90" height="30" as="geometry" />
        </mxCell>
        <mxCell id="y14SEAgiUt3iNXtekEc_-48" value="AF2" style="text;html=1;strokeColor=none;fillColor=none;align=center;verticalAlign=middle;whiteSpace=wrap;rounded=0;fontSize=16;fontStyle=1;fontColor=#000000;" vertex="1" parent="1">
          <mxGeometry x="62.17" y="490" width="90" height="30" as="geometry" />
        </mxCell>
        <mxCell id="y14SEAgiUt3iNXtekEc_-49" value="AF3" style="text;html=1;strokeColor=none;fillColor=none;align=center;verticalAlign=middle;whiteSpace=wrap;rounded=0;fontSize=16;fontStyle=1;fontColor=#000000;" vertex="1" parent="1">
          <mxGeometry x="62.19" y="539" width="90" height="30" as="geometry" />
        </mxCell>
        <mxCell id="y14SEAgiUt3iNXtekEc_-50" value="AF4" style="text;html=1;strokeColor=none;fillColor=none;align=center;verticalAlign=middle;whiteSpace=wrap;rounded=0;fontSize=16;fontStyle=1;fontColor=#000000;" vertex="1" parent="1">
          <mxGeometry x="62.19" y="591" width="90" height="30" as="geometry" />
        </mxCell>
        <mxCell id="y14SEAgiUt3iNXtekEc_-51" value="001" style="text;html=1;strokeColor=none;fillColor=none;align=center;verticalAlign=middle;whiteSpace=wrap;rounded=0;fontSize=16;fontStyle=1;fontColor=#000000;" vertex="1" parent="1">
          <mxGeometry x="196.55" y="435" width="90" height="30" as="geometry" />
        </mxCell>
        <mxCell id="y14SEAgiUt3iNXtekEc_-52" value="010" style="text;html=1;strokeColor=none;fillColor=none;align=center;verticalAlign=middle;whiteSpace=wrap;rounded=0;fontSize=16;fontStyle=1;fontColor=#000000;" vertex="1" parent="1">
          <mxGeometry x="196.55" y="487" width="90" height="30" as="geometry" />
        </mxCell>
        <mxCell id="y14SEAgiUt3iNXtekEc_-53" value="011" style="text;html=1;strokeColor=none;fillColor=none;align=center;verticalAlign=middle;whiteSpace=wrap;rounded=0;fontSize=16;fontStyle=1;fontColor=#000000;" vertex="1" parent="1">
          <mxGeometry x="196.55" y="539" width="90" height="30" as="geometry" />
        </mxCell>
        <mxCell id="y14SEAgiUt3iNXtekEc_-54" value="100" style="text;html=1;strokeColor=none;fillColor=none;align=center;verticalAlign=middle;whiteSpace=wrap;rounded=0;fontSize=16;fontStyle=1;fontColor=#000000;" vertex="1" parent="1">
          <mxGeometry x="196.55" y="591" width="90" height="30" as="geometry" />
        </mxCell>
        <mxCell id="y14SEAgiUt3iNXtekEc_-55" value="PREC. DEC" style="text;html=1;strokeColor=none;fillColor=none;align=center;verticalAlign=middle;whiteSpace=wrap;rounded=0;fontSize=16;fontStyle=1;fontColor=#000000;" vertex="1" parent="1">
          <mxGeometry x="330.92" y="383" width="90" height="30" as="geometry" />
        </mxCell>
        <mxCell id="y14SEAgiUt3iNXtekEc_-56" value="1" style="text;html=1;strokeColor=none;fillColor=none;align=center;verticalAlign=middle;whiteSpace=wrap;rounded=0;fontSize=16;fontStyle=1;fontColor=#000000;" vertex="1" parent="1">
          <mxGeometry x="330.92" y="435" width="90" height="30" as="geometry" />
        </mxCell>
        <mxCell id="y14SEAgiUt3iNXtekEc_-57" value="2" style="text;html=1;strokeColor=none;fillColor=none;align=center;verticalAlign=middle;whiteSpace=wrap;rounded=0;fontSize=16;fontStyle=1;fontColor=#000000;" vertex="1" parent="1">
          <mxGeometry x="330.92" y="490" width="90" height="30" as="geometry" />
        </mxCell>
        <mxCell id="y14SEAgiUt3iNXtekEc_-58" value="3" style="text;html=1;strokeColor=none;fillColor=none;align=center;verticalAlign=middle;whiteSpace=wrap;rounded=0;fontSize=16;fontStyle=1;fontColor=#000000;" vertex="1" parent="1">
          <mxGeometry x="330.92" y="539" width="90" height="30" as="geometry" />
        </mxCell>
        <mxCell id="y14SEAgiUt3iNXtekEc_-59" value="4" style="text;html=1;strokeColor=none;fillColor=none;align=center;verticalAlign=middle;whiteSpace=wrap;rounded=0;fontSize=16;fontStyle=1;fontColor=#000000;" vertex="1" parent="1">
          <mxGeometry x="330.92" y="591" width="90" height="30" as="geometry" />
        </mxCell>
        <mxCell id="y14SEAgiUt3iNXtekEc_-60" value="PROBABILITY DESCART" style="text;html=1;strokeColor=none;fillColor=none;align=center;verticalAlign=middle;whiteSpace=wrap;rounded=0;fontSize=16;fontStyle=1;fontColor=#000000;" vertex="1" parent="1">
          <mxGeometry x="506.18" y="383" width="90" height="30" as="geometry" />
        </mxCell>
        <mxCell id="y14SEAgiUt3iNXtekEc_-61" value="Bit, Bin" style="text;html=1;strokeColor=none;fillColor=none;align=center;verticalAlign=middle;whiteSpace=wrap;rounded=0;fontSize=16;fontStyle=1;fontColor=#000000;" vertex="1" parent="1">
          <mxGeometry x="636.5500000000001" y="383" width="90" height="30" as="geometry" />
        </mxCell>
        <mxCell id="y14SEAgiUt3iNXtekEc_-62" value="1" style="text;html=1;strokeColor=none;fillColor=none;align=center;verticalAlign=middle;whiteSpace=wrap;rounded=0;fontSize=16;fontStyle=1;fontColor=#000000;" vertex="1" parent="1">
          <mxGeometry x="506.18" y="435" width="90" height="30" as="geometry" />
        </mxCell>
        <mxCell id="y14SEAgiUt3iNXtekEc_-63" value="2" style="text;html=1;strokeColor=none;fillColor=none;align=center;verticalAlign=middle;whiteSpace=wrap;rounded=0;fontSize=16;fontStyle=1;fontColor=#000000;" vertex="1" parent="1">
          <mxGeometry x="506.18" y="490" width="90" height="30" as="geometry" />
        </mxCell>
        <mxCell id="y14SEAgiUt3iNXtekEc_-64" value="3" style="text;html=1;strokeColor=none;fillColor=none;align=center;verticalAlign=middle;whiteSpace=wrap;rounded=0;fontSize=16;fontStyle=1;fontColor=#000000;" vertex="1" parent="1">
          <mxGeometry x="506.18" y="540" width="90" height="30" as="geometry" />
        </mxCell>
        <mxCell id="y14SEAgiUt3iNXtekEc_-65" value="01" style="text;html=1;strokeColor=none;fillColor=none;align=center;verticalAlign=middle;whiteSpace=wrap;rounded=0;fontSize=16;fontStyle=1;fontColor=#000000;" vertex="1" parent="1">
          <mxGeometry x="635.5500000000001" y="435" width="90" height="30" as="geometry" />
        </mxCell>
        <mxCell id="y14SEAgiUt3iNXtekEc_-66" value="10" style="text;html=1;strokeColor=none;fillColor=none;align=center;verticalAlign=middle;whiteSpace=wrap;rounded=0;fontSize=16;fontStyle=1;fontColor=#000000;" vertex="1" parent="1">
          <mxGeometry x="640.5500000000001" y="487" width="90" height="30" as="geometry" />
        </mxCell>
        <mxCell id="y14SEAgiUt3iNXtekEc_-67" value="11" style="text;html=1;strokeColor=none;fillColor=none;align=center;verticalAlign=middle;whiteSpace=wrap;rounded=0;fontSize=16;fontStyle=1;fontColor=#000000;" vertex="1" parent="1">
          <mxGeometry x="636.5500000000001" y="539" width="90" height="30" as="geometry" />
        </mxCell>
        <mxCell id="y14SEAgiUt3iNXtekEc_-69" value="" style="line;strokeWidth=2;html=1;fillColor=#f8cecc;strokeColor=#b85450;rotation=-210;" vertex="1" parent="1">
          <mxGeometry x="26.27" y="250" width="243" height="10" as="geometry" />
        </mxCell>
        <mxCell id="y14SEAgiUt3iNXtekEc_-70" value="" style="line;strokeWidth=2;html=1;fillColor=#f8cecc;strokeColor=#b85450;rotation=-100;" vertex="1" parent="1">
          <mxGeometry x="363.43" y="251.66000000000003" width="124.23" height="10" as="geometry" />
        </mxCell>
        <mxCell id="y14SEAgiUt3iNXtekEc_-71" value="" style="line;strokeWidth=2;html=1;fillColor=#f8cecc;strokeColor=#b85450;rotation=-110;" vertex="1" parent="1">
          <mxGeometry x="393.29" y="251" width="133.26" height="10" as="geometry" />
        </mxCell>
        <mxCell id="y14SEAgiUt3iNXtekEc_-72" value="" style="line;strokeWidth=2;html=1;fillColor=#f8cecc;strokeColor=#b85450;rotation=40;" vertex="1" parent="1">
          <mxGeometry x="577.09" y="251.17" width="196.93" height="10" as="geometry" />
        </mxCell>
      </root>
    </mxGraphModel>
  </diagram>
</mxfile>
